{"title":"Twee vorstinnen en een vorst","uid":7446438,"size":779980878,"categoryP":"video","categoryS":"movies","magnet":"?xt=urn:btih:97a3fd6ad6504f3a118f5021b602ba5f648540b6&amp;dn=Twee+vorstinnen+en+een+vorst&amp;tr=udp%3A%2F%2Ftracker.openbittorrent.com%3A80&amp;tr=udp%3A%2F%2Fopen.demonii.com%3A1337&amp;tr=udp%3A%2F%2Ftracker.coppersurfer.tk%3A6969&amp;tr=udp%3A%2F%2Fexodus.desync.com%3A6969","seeders":2,"leechers":1,"uploader":"doobsie101","files":1,"time":1342382058,"description":"Another not of mine..\n\nGeneral\nComplete name                            : C:MediaFilms And MoviesFilmsTwee vorstinnen en een vorstTwee Vorstinnen En Een Vorst(1981).avi\nFormat                                   : AVI\nFormat/Info                              : Audio Video Interleave\nFile size                                : 744 MiB\nDuration                                 : 1h 29mn\nOverall bit rate                         : 1 166 Kbps\nWriting library                          : VirtualDub-MPEG2 build 24550/release\n\nVideo\nID                                       : 0\nFormat                                   : MPEG-4 Visual\nFormat profile                           : Advanced Simple@L5\nFormat settings, BVOP                    : 1\nFormat settings, QPel                    : No\nFormat settings, GMC                     : No warppoints\nFormat settings, Matrix                  : Default (H.263)\nMuxing mode                              : Packed bitstream\nCodec ID                                 : DX50\nCodec ID/Hint                            : DivX 5\nDuration                                 : 1h 29mn\nBit rate                                 : 962 Kbps\nWidth                                    : 720 pixels\nHeight                                   : 480 pixels\nDisplay aspect ratio                     : 3:2\nFrame rate                               : 29.970 fps\nStandard                                 : NTSC\nColor space                              : YUV\nChroma subsampling                       : 4:2:0\nBit depth                                : 8 bits\nScan type                                : Progressive\nCompression mode                         : Lossy\nBits/(Pixel*Frame)                       : 0.093\nStream size                              : 614 MiB (83%)\nWriting library                          : XviD 1.2.0.dev47 (UTC 2006-11-01)\n\nAudio\nID                                       : 1\nFormat                                   : MPEG Audio\nFormat version                           : Version 1\nFormat profile                           : Layer 3\nCodec ID                                 : 55\nCodec ID/Hint                            : MP3\nDuration                                 : 1h 29mn\nBit rate mode                            : Constant\nBit rate                                 : 192 Kbps\nChannel(s)                               : 2 channels\nSampling rate                            : 44.1 KHz\nCompression mode                         : Lossy\nDelay relative to video                  : 26ms\nStream size                              : 123 MiB (16%)\nAlignment                                : Split accross interleaves\nInterleave, duration                     : 33 ms (1.00 video frame)\nInterleave, preload duration             : 500 ms\n\n","torrent":{"xt":"urn:btih:97a3fd6ad6504f3a118f5021b602ba5f648540b6","amp;dn":"Twee+vorstinnen+en+een+vorst","amp;tr":["udp%3A%2F%2Ftracker.openbittorrent.com%3A80","udp%3A%2F%2Fopen.demonii.com%3A1337","udp%3A%2F%2Ftracker.coppersurfer.tk%3A6969","udp%3A%2F%2Fexodus.desync.com%3A6969"],"infoHash":"97a3fd6ad6504f3a118f5021b602ba5f648540b6","infoHashBuffer":{"type":"Buffer","data":[151,163,253,106,214,80,79,58,17,143,80,33,182,2,186,95,100,133,64,182]},"announce":[],"urlList":[]}}